<svg xmlns="http://www.w3.org/2000/svg" width="93" height="89" viewBox="0 0 93 89">
  <defs>
    <style>
      .cls-1 {
        fill: #fff;
        fill-rule: evenodd;
      }
    </style>
  </defs>
  <path id="da" class="cls-1" d="M37.956,60.085a15.855,15.855,0,0,1-3.182,2.553,8.7,8.7,0,0,1-4.662,1.147,8.987,8.987,0,0,1-4.625-1.147A10.057,10.057,0,0,1,22.231,59.6a13.526,13.526,0,0,1-1.924-4.329,20.375,20.375,0,0,1-.629-5.106,24.66,24.66,0,0,1,.777-6.475,14.928,14.928,0,0,1,2.183-4.81,10.1,10.1,0,0,1,3.256-3,8.046,8.046,0,0,1,4-1.036,8.323,8.323,0,0,1,3.145.555A9.2,9.2,0,0,1,35.4,36.775a7.234,7.234,0,0,1,1.628,1.85,9.728,9.728,0,0,1,.925,1.924V60.085ZM44.69,14.131a1.4,1.4,0,0,0-.407-1.184,1.361,1.361,0,0,0-1-.222,5.861,5.861,0,0,0-1.221.3q-0.63.222-1.665,0.555t-2.664.74q-1.629.408-4.144,0.777a1.588,1.588,0,0,0-.888.518,1.273,1.273,0,0,0-.3.814,1.2,1.2,0,0,0,.555,1.295,3.829,3.829,0,0,0,1.221.185,5.205,5.205,0,0,1,2.331.407,2.422,2.422,0,0,1,1.11,1.11,3.767,3.767,0,0,1,.333,1.628V34.259H37.734a15.622,15.622,0,0,0-3.959-1.517,19.3,19.3,0,0,0-4.625-.555,15.809,15.809,0,0,0-6.882,1.48,17.892,17.892,0,0,0-5.4,3.922,17.56,17.56,0,0,0-3.552,5.624A17.749,17.749,0,0,0,12.056,49.8a19.741,19.741,0,0,0,1.258,7.178,17.38,17.38,0,0,0,3.4,5.587,15.474,15.474,0,0,0,4.958,3.626,14,14,0,0,0,5.92,1.3,12.876,12.876,0,0,0,5.55-1.3,16.471,16.471,0,0,0,4.662-3.219H38.03v2.96c0,0.4.012,0.74,0.037,1.036a0.514,0.514,0,0,0,.629.444L50.462,66.6a1.257,1.257,0,0,0,1.258-1.258,1.629,1.629,0,0,0-.222-0.777,1.088,1.088,0,0,0-1.036-.407,6.989,6.989,0,0,1-4.4-1.11,3.942,3.942,0,0,1-1.369-3.256V14.131ZM68.443,36.294a8.031,8.031,0,0,1,1.7,5.439v5.846q-1.185.149-3.219,0.259t-4.44.444a39.9,39.9,0,0,0-4.884,1,17.8,17.8,0,0,0-4.477,1.85,10.5,10.5,0,0,0-3.293,3.034,7.672,7.672,0,0,0-1.295,4.514,8.05,8.05,0,0,0,.74,3.441,9.145,9.145,0,0,0,4.847,4.662,9.135,9.135,0,0,0,3.589.7,17.576,17.576,0,0,0,6.919-1.517,16.739,16.739,0,0,0,3.219-1.887,8.139,8.139,0,0,0,2.294-2.59,6.247,6.247,0,0,0,2.516,4.4,7.99,7.99,0,0,0,4.884,1.591,11.365,11.365,0,0,0,1.147-.075,8.4,8.4,0,0,0,1.369-.266,3.3,3.3,0,0,0,1.11-.531,1.057,1.057,0,0,0,.444-0.874,1.218,1.218,0,0,0-.3-1.024,1.505,1.505,0,0,0-.814-0.19,3.329,3.329,0,0,1-1.85-.48A4.03,4.03,0,0,1,77.471,62.9a4.451,4.451,0,0,1-.629-1.4,5.51,5.51,0,0,1-.185-1.329v-17.2a10.885,10.885,0,0,0-1.221-5.5,9.18,9.18,0,0,0-3.145-3.286,12.026,12.026,0,0,0-4.366-1.587,30.193,30.193,0,0,0-4.958-.406,22.467,22.467,0,0,0-4.255.407,13.363,13.363,0,0,0-3.774,1.295,7.756,7.756,0,0,0-2.7,2.331A5.864,5.864,0,0,0,51.2,39.735a6.325,6.325,0,0,0,1.221,3.774,4.133,4.133,0,0,0,3.589,1.7,3.432,3.432,0,0,0,2.331-.74,2.054,2.054,0,0,0,.851-1.11,1.134,1.134,0,0,0-.37-0.37,9.815,9.815,0,0,1-.814-0.74A4.688,4.688,0,0,1,57.2,41.1a3.354,3.354,0,0,1-.37-1.591A4.518,4.518,0,0,1,58.6,35.665a6.385,6.385,0,0,1,3.922-1.332Q66.741,34.333,68.443,36.294Zm1.7,17.649a9.727,9.727,0,0,1-.74,3.774,9.007,9.007,0,0,1-2.035,3.034,9.937,9.937,0,0,1-3,2,8.814,8.814,0,0,1-3.552.74,4.206,4.206,0,0,1-3.478-1.7,6.4,6.4,0,0,1-1.332-4.07,5.6,5.6,0,0,1,.888-3.182,6.748,6.748,0,0,1,2.627-2.22,18.719,18.719,0,0,1,4.4-1.48q2.664-.591,6.216-1.036v4.144ZM-1-1V90H94V-1H-1Z"/>
</svg>
