<svg width="300" height="227" xmlns="http://www.w3.org/2000/svg">
  <defs>
    <style>
      .cls-1 {
        fill: #fff;
        fill-rule: evenodd;
      }
    </style>
  </defs>
  <path id="DAVID_arcus_CREATIVE_technologist" data-name="DAVID arcus CREATIVE technologist" class="cls-1" d="M1292.01,442.873a27.938,27.938,0,0,0-8.68-10.231,35,35,0,0,0-12.26-5.469,59.654,59.654,0,0,0-13.95-1.651h-24.14v66.761h24.89a48.693,48.693,0,0,0,13.58-1.933,35.756,35.756,0,0,0,12.02-6.035,30.418,30.418,0,0,0,8.58-10.467,32.859,32.859,0,0,0,3.26-15.134Q1295.31,449.286,1292.01,442.873Zm-15.33,25.176a16.081,16.081,0,0,1-4.9,6.035,19.7,19.7,0,0,1-7.07,3.253,34.714,34.714,0,0,1-8.35.99h-7.63V439.289h8.01a34.345,34.345,0,0,1,8.06.943,19.62,19.62,0,0,1,6.98,3.159,15.77,15.77,0,0,1,4.9,5.941A24.719,24.719,0,0,1,1276.68,468.049Zm90.2,24.234-27.73-66.761H1323.5l-28,66.761h17.53l4.91-13.107h25.83l5.19,13.107h17.92Zm-27.54-26.025h-16.78l8.49-22.914Zm89.11-40.736h-17.82l-15.37,47.336h-0.38l-15.46-47.336h-18.11l25.27,66.761h16.13Zm21.69,66.761V425.522h-16.22v66.761h16.22Zm72.79-49.41a28.009,28.009,0,0,0-8.67-10.231,35.078,35.078,0,0,0-12.26-5.469,59.675,59.675,0,0,0-13.96-1.651H1463.9v66.761h24.9a48.746,48.746,0,0,0,13.58-1.933,35.756,35.756,0,0,0,12.02-6.035,30.531,30.531,0,0,0,8.58-10.467,32.859,32.859,0,0,0,3.25-15.134Q1526.23,449.286,1522.93,442.873Zm-15.32,25.176a16.176,16.176,0,0,1-4.9,6.035,19.747,19.747,0,0,1-7.08,3.253,34.631,34.631,0,0,1-8.34.99h-7.64V439.289h8.02a34.407,34.407,0,0,1,8.06.943,19.7,19.7,0,0,1,6.98,3.159,15.863,15.863,0,0,1,4.9,5.941A24.719,24.719,0,0,1,1507.61,468.049Zm-209.6,37.627a2.057,2.057,0,0,0-1.01.338,14.135,14.135,0,0,1-4.94.679,12.148,12.148,0,0,1-2.04-.291,14.769,14.769,0,0,0-1.74-.29c-0.58,0-1.26.776-2.03,2.324l-3.64,7.7q-1.3-10.461-12.2-10.461-10.47,0-22.96,11.017a69.288,69.288,0,0,0-14.67,17.975q-5.52,9.858-5.52,18.12a16.926,16.926,0,0,0,4.79,12.4,16.6,16.6,0,0,0,12.35,4.855q12.06,0,21.21-13.366a15.907,15.907,0,0,0-1.01,5.085,6.817,6.817,0,0,0,2.83,5.666,11.693,11.693,0,0,0,7.34,2.18,20.182,20.182,0,0,0,15.25-6.829q3.2-3.487,3.2-5.085a0.516,0.516,0,0,0-.58-0.581c-0.39,0-.97.542-1.75,1.623q-5.655,7.821-11.33,7.82-3.78,0-3.78-3.768,0-3.333,2.77-9.566l19.17-43.483a14.653,14.653,0,0,0,1.17-3.045,0.841,0.841,0,0,0-.88-1.014h0Zm-19.32,18.7-11.33,24.347a41.3,41.3,0,0,1-9.08,12.754q-5.46,5.073-10.1,5.071-8.145,0-8.14-9.854,0-8.115,4.65-18.913a90.841,90.841,0,0,1,12.35-20.506q6.69-8.552,13.95-8.552a9.22,9.22,0,0,1,6.9,2.754,9.941,9.941,0,0,1,2.69,7.246q0,1.593-1.89,5.653h0Zm69.89-18.268q-10.185,0-23.54,18.6l5.37-13.076a28.853,28.853,0,0,0,1.89-5.376,0.77,0.77,0,0,0-.87-0.872,12.389,12.389,0,0,0-1.31.291q-2.61,1.017-10.17,1.307-7.545.294-7.55,1.163c0,0.678.72,1.017,2.18,1.017h1.45a8.612,8.612,0,0,0,1.89-.146h0.58q1.89,0,1.89,1.165l-24.56,55.928-0.72,1.457a1.413,1.413,0,0,0-.44.581c0,0.389.44,0.584,1.31,0.584h0.87a14.137,14.137,0,0,1,3.92-.436,32.544,32.544,0,0,1,4.51.436c0.68,0,1.5-1.113,2.47-3.342l10.46-22.956q6.675-14.673,14.24-22.81,7.545-8.136,11.77-8.137,3.48,0,3.48,3.487a4.906,4.906,0,0,1-.29,1.6l-0.29,1.453c0,1.067.78,1.6,2.33,1.6a5.724,5.724,0,0,0,4.36-2.107,7.287,7.287,0,0,0,1.88-5.013h0q0-6.392-7.11-6.392h0Zm52.15,2.687a12.609,12.609,0,0,0-8.71-2.978q-14.25,0-27.61,13.192-16.275,15.946-16.27,31.167,0,8.99,5.74,14.425t15.18,5.434q10.32,0,18.6-8.2,3.765-3.74,3.77-5.467a0.707,0.707,0,0,0-.72-0.863c-0.58,0-1.36.575-2.33,1.723q-8.43,9.9-16.71,9.9-11.04,0-11.04-12.175,0-14.2,10.32-30.579,10.02-15.944,20.78-15.944a11.485,11.485,0,0,1,6.32,1.816c1.88,1.213,2.83,2.593,2.83,4.141,0,1.067-.39,1.6-1.16,1.6a8.921,8.921,0,0,1-1.75-.581l-1.16-.145q-3.915,0-3.92,3.487a4.612,4.612,0,0,0,1.6,3.414,5.1,5.1,0,0,0,3.63,1.526q5.955,0,5.95-7.12A9.915,9.915,0,0,0,1400.73,508.8Zm68.43-1.816a3.327,3.327,0,0,0-1.01.291,18.227,18.227,0,0,1-5.09.436h-4.21c-0.58,0-1.12.581-1.6,1.743l-9.3,22.084q-6.69,15.985-16.85,26.443-9.015,9.3-14.68,9.3-5.37,0-5.37-4.234,0-3.5,3.63-11.825l5.81-13.431q3.93-9.051,4.5-10.656,2.475-6.569,5.38-12.774t2.91-7.371a0.72,0.72,0,0,0-.73-0.876,4.693,4.693,0,0,0-1.16.29q-3.63,1.308-11.19,1.308a26.909,26.909,0,0,1-3.34-.291,27.423,27.423,0,0,0-3.34-.29,0.9,0.9,0,0,0-1.02,1.017q0,1.6,4.65,1.6c2.32,0,3.49.39,3.49,1.167a2.584,2.584,0,0,1-.44,1.024q-1.89,3.8-2.47,5.107l-14.96,33.726q-3.21,7.155-3.2,11.1,0,3.649,3.63,5.911a17.341,17.341,0,0,0,9.3,2.263,21.392,21.392,0,0,0,12.28-3.4q5.01-3.395,14.74-14.765l-1.74,4.981a18.32,18.32,0,0,0-1.31,5.419q0,3.075,3.2,5.419a12.215,12.215,0,0,0,7.41,2.342,19.926,19.926,0,0,0,10.46-3.085q8.565-5.292,8.57-8.819a0.774,0.774,0,0,0-.87-0.881c-0.39,0-1.11.67-2.18,2q-6.54,8.023-11.91,8.021-3.78,0-3.78-3.962,0-2.785,4.94-14.376l16.27-38.289,1.02-2.347,0.29-.736h0a0.589,0.589,0,0,0-.73-0.586h0Zm50.42,2.034a14.644,14.644,0,0,0-9.59-3.341,18.044,18.044,0,0,0-14.02,6.465,23.087,23.087,0,0,0-5.74,15.909q0,5.524,2.98,13.948,3.12,8.865,3.12,12.786a11.829,11.829,0,0,1-4.01,9.153,14.349,14.349,0,0,1-10,3.633,16.253,16.253,0,0,1-11.17-4.214,12.825,12.825,0,0,1-4.75-9.88,8.647,8.647,0,0,1,1.09-4.286q1.1-1.961,2.4-1.961c0.77,0,1.16.486,1.16,1.453a7.272,7.272,0,0,1-.36,1.162,5.849,5.849,0,0,0-.37,2.034q0,3.051,4.51,3.051,4.215,0,4.21-4.358a6.027,6.027,0,0,0-1.96-4.5,6.568,6.568,0,0,0-4.72-1.889,7.836,7.836,0,0,0-6.03,2.615,9.5,9.5,0,0,0-2.4,6.683,14.971,14.971,0,0,0,5.89,11.987,22.142,22.142,0,0,0,14.6,4.867,22.831,22.831,0,0,0,23.39-23.246,23.229,23.229,0,0,0-1.6-8.863q-6.825-16.563-6.83-20.2a9.483,9.483,0,0,1,3.2-7.191,11.066,11.066,0,0,1,7.84-2.979,11.84,11.84,0,0,1,6.83,2.325q3.345,2.325,3.34,4.794a0.84,0.84,0,0,1-.87,1.017,3.86,3.86,0,0,1-1.52-.436,3.856,3.856,0,0,0-1.38-.435q-2.91,0-2.91,3.487,0,4.215,4.36,4.213a4.981,4.981,0,0,0,3.78-1.743,6.04,6.04,0,0,0,1.6-4.214A9.932,9.932,0,0,0,1519.58,509.017Zm-261.15,99.688a11.283,11.283,0,0,1-4.69,4.08,14.2,14.2,0,0,1-5.92,1.275,14.886,14.886,0,0,1-6.25-1.271,14.14,14.14,0,0,1-4.71-3.431,15.255,15.255,0,0,1-2.99-5.007,17.187,17.187,0,0,1-1.04-6,17.647,17.647,0,0,1,1.02-6,15,15,0,0,1,2.95-5.007,14.3,14.3,0,0,1,4.72-3.431,14.972,14.972,0,0,1,6.3-1.271,12.417,12.417,0,0,1,3.24.408,14.076,14.076,0,0,1,2.78,1.071,10.268,10.268,0,0,1,2.22,1.53,9.277,9.277,0,0,1,1.5,1.734l3.06-2.244a10.509,10.509,0,0,0-2.3-2.379,14.9,14.9,0,0,0-3.06-1.8,18.554,18.554,0,0,0-7.49-1.58,19.285,19.285,0,0,0-7.47,1.428,17.9,17.9,0,0,0-9.92,9.944,19.81,19.81,0,0,0-1.43,7.6,20.172,20.172,0,0,0,1.4,7.6,18.164,18.164,0,0,0,3.9,5.992,17.926,17.926,0,0,0,5.97,3.953,19.653,19.653,0,0,0,7.55,1.427,17.722,17.722,0,0,0,4.51-.543,16.76,16.76,0,0,0,3.78-1.477,14.391,14.391,0,0,0,3-2.159,14.857,14.857,0,0,0,2.22-2.6Zm22.03-9.179h6.12l9.99,16.879h4.49L1290.5,599.22a12.592,12.592,0,0,0,3.67-.918,9.148,9.148,0,0,0,2.91-1.912,8.917,8.917,0,0,0,1.94-2.831,9.034,9.034,0,0,0,.71-3.62,9.855,9.855,0,0,0-.92-4.488,7.829,7.829,0,0,0-2.57-2.983,11.1,11.1,0,0,0-3.93-1.658,22.448,22.448,0,0,0-4.92-.51h-10.61v36.105h3.68V599.526Zm0-16.064h6.52a18.169,18.169,0,0,1,3.73.357,8.329,8.329,0,0,1,2.85,1.122,5.436,5.436,0,0,1,1.84,1.989,6.273,6.273,0,0,1,.66,3.009,5.413,5.413,0,0,1-2.4,4.819,12.2,12.2,0,0,1-6.83,1.606h-6.37v-12.9Zm39.72,15.758h17.49v-3.264h-17.49V583.564h18.72V580.3h-22.39v36.105h23v-3.263h-19.33V599.22Zm39.37,7.7h18.67l3.97,9.485h4.08l-15.5-36.105h-3.57l-15.6,36.105h4.02Zm9.33-22.54,7.96,19.174h-15.91Zm40.39-.816h12.09V580.3h-27.85v3.264h12.09v32.841h3.67V583.564Zm30.34-3.264h-3.67v36.105h3.67V580.3Zm18.11,0h-3.98l13.77,36.105h3.87L1485.2,580.3h-3.92l-11.73,31.363h-0.1ZM1503,599.22h17.49v-3.264H1503V583.564h18.72V580.3h-22.39v36.105h23v-3.263H1503V599.22Zm-255.29,31.7v-5.478h-21.43v5.478h7.51v21.09h6.41v-21.09h7.51Zm21.65,21.09v-5.479h-12.34v-5.516h11.03v-5.141h-11.03v-5.029h11.67v-5.4h-17.87v26.568h18.54Zm27.81-3.678-4.47-4.2a6.43,6.43,0,0,1-2.29,1.951,7.052,7.052,0,0,1-3.34.751,7.6,7.6,0,0,1-3.04-.6,7.023,7.023,0,0,1-2.38-1.67,7.822,7.822,0,0,1-1.56-2.571,9.451,9.451,0,0,1-.56-3.3,9.191,9.191,0,0,1,.56-3.246,7.785,7.785,0,0,1,1.58-2.57,7.285,7.285,0,0,1,2.42-1.708,7.611,7.611,0,0,1,3.1-.619,7.873,7.873,0,0,1,3,.6,5.416,5.416,0,0,1,2.36,1.839l4.36-4.353a10.652,10.652,0,0,0-4.41-2.908,16.444,16.444,0,0,0-11.21-.019,13.527,13.527,0,0,0-4.57,2.8,12.906,12.906,0,0,0-3.06,4.409,15.534,15.534,0,0,0-.02,11.483,13.113,13.113,0,0,0,7.52,7.317,15.593,15.593,0,0,0,5.69,1.013,14.184,14.184,0,0,0,5.96-1.182,12.674,12.674,0,0,0,4.36-3.208h0Zm26.12,3.678V625.439h-6.42V635.5h-10.36V625.439h-6.42v26.568h6.42V640.9h10.36v11.108h6.42Zm29.83,0V625.439h-6.23l0.15,17.336h-0.11l-10.66-17.336h-7.32v26.568h6.23l-0.15-17.375h0.11l10.7,17.375h7.28Zm32.27-19.157a12.658,12.658,0,0,0-3.02-4.372,13.422,13.422,0,0,0-4.6-2.777,17.561,17.561,0,0,0-11.54,0,13.524,13.524,0,0,0-4.58,2.777,12.8,12.8,0,0,0-3.02,4.372,14.739,14.739,0,0,0-1.08,5.76,14.913,14.913,0,0,0,1.08,5.76,13.3,13.3,0,0,0,3.02,4.466,13.535,13.535,0,0,0,4.58,2.87,16.939,16.939,0,0,0,11.54,0,13.43,13.43,0,0,0,4.6-2.87,13.16,13.16,0,0,0,3.02-4.466,14.916,14.916,0,0,0,1.09-5.76A14.74,14.74,0,0,0,1385.39,632.85Zm-6.34,9.081a7.71,7.71,0,0,1-1.58,2.608,7.187,7.187,0,0,1-2.4,1.707,7.935,7.935,0,0,1-6.15,0,7.147,7.147,0,0,1-2.39-1.707,7.809,7.809,0,0,1-1.55-2.608,9.384,9.384,0,0,1-.57-3.321,9.234,9.234,0,0,1,.55-3.227,7.328,7.328,0,0,1,1.55-2.571,7.429,7.429,0,0,1,5.48-2.308,7.611,7.611,0,0,1,3.1.62,7.121,7.121,0,0,1,2.4,1.688,7.822,7.822,0,0,1,1.56,2.571,9.238,9.238,0,0,1,.56,3.227A9.612,9.612,0,0,1,1379.05,641.931Zm28.59,10.076v-5.592h-10.28V625.439h-6.45v26.568h16.73Zm28.67-19.157a12.524,12.524,0,0,0-3.02-4.372,13.422,13.422,0,0,0-4.6-2.777,17.561,17.561,0,0,0-11.54,0,13.383,13.383,0,0,0-4.57,2.777,12.524,12.524,0,0,0-3.02,4.372,14.562,14.562,0,0,0-1.09,5.76,14.733,14.733,0,0,0,1.09,5.76,13.018,13.018,0,0,0,3.02,4.466,13.4,13.4,0,0,0,4.57,2.87,16.939,16.939,0,0,0,11.54,0,13.43,13.43,0,0,0,4.6-2.87,13.018,13.018,0,0,0,3.02-4.466,14.733,14.733,0,0,0,1.09-5.76A14.562,14.562,0,0,0,1436.31,632.85Zm-6.34,9.081a7.71,7.71,0,0,1-1.58,2.608,7.187,7.187,0,0,1-2.4,1.707,7.935,7.935,0,0,1-6.15,0,7.147,7.147,0,0,1-2.39-1.707,7.809,7.809,0,0,1-1.55-2.608,9.851,9.851,0,0,1-.02-6.548,7.2,7.2,0,0,1,1.56-2.571,7.324,7.324,0,0,1,2.4-1.688,7.435,7.435,0,0,1,3.07-.62,7.611,7.611,0,0,1,3.1.62,7.121,7.121,0,0,1,2.4,1.688,7.822,7.822,0,0,1,1.56,2.571,9.238,9.238,0,0,1,.56,3.227A9.612,9.612,0,0,1,1429.97,641.931Zm35.46,8.462V636.321h-10.96V641.5h5.07v4.841a7.941,7.941,0,0,1-1.88.544,12.928,12.928,0,0,1-2.14.169,9.156,9.156,0,0,1-3.47-.619,7.128,7.128,0,0,1-2.55-1.726,7.241,7.241,0,0,1-1.56-2.646,10.4,10.4,0,0,1-.52-3.377,9.167,9.167,0,0,1,.58-3.321,7.876,7.876,0,0,1,1.63-2.627,7.522,7.522,0,0,1,2.48-1.726,7.727,7.727,0,0,1,3.11-.619,8.38,8.38,0,0,1,3.49.694,7.028,7.028,0,0,1,2.48,1.783l4.05-4.616a12.071,12.071,0,0,0-4.39-2.571,17.391,17.391,0,0,0-5.85-.956,16.157,16.157,0,0,0-5.67.975,13.571,13.571,0,0,0-4.58,2.8,12.745,12.745,0,0,0-3.05,4.409,15.584,15.584,0,0,0-.02,11.5,12.909,12.909,0,0,0,3.02,4.409,13.536,13.536,0,0,0,4.61,2.852,16.538,16.538,0,0,0,5.88,1.013,23.89,23.89,0,0,0,5.68-.638,20.391,20.391,0,0,0,4.56-1.651h0Zm11.9,1.614V625.439h-6.46v26.568h6.46Zm23.79-23.979a11.9,11.9,0,0,0-4.11-2.439,13.854,13.854,0,0,0-4.6-.826,14.937,14.937,0,0,0-3.71.469,10.214,10.214,0,0,0-3.31,1.482,7.878,7.878,0,0,0-2.36,2.59,7.522,7.522,0,0,0-.9,3.79,7.215,7.215,0,0,0,.58,3.058,6.7,6.7,0,0,0,1.54,2.139,8.308,8.308,0,0,0,2.18,1.445,22.152,22.152,0,0,0,2.49.975c0.88,0.276,1.66.532,2.35,0.77a8.685,8.685,0,0,1,1.72.788,3.583,3.583,0,0,1,1.07.957,2.139,2.139,0,0,1,.38,1.275,2.834,2.834,0,0,1-.3,1.351,2.424,2.424,0,0,1-.81.9,3.476,3.476,0,0,1-1.18.488,6.434,6.434,0,0,1-1.39.15,6.964,6.964,0,0,1-3.17-.807,7.789,7.789,0,0,1-2.57-2.008l-4.2,4.278a11.659,11.659,0,0,0,4.42,2.834,15.712,15.712,0,0,0,5.52.994,13.763,13.763,0,0,0,3.79-.525,9.648,9.648,0,0,0,3.26-1.614,7.761,7.761,0,0,0,2.27-2.758,8.585,8.585,0,0,0,.85-3.959,6.385,6.385,0,0,0-.79-3.321,7.53,7.53,0,0,0-1.99-2.233,10.608,10.608,0,0,0-2.66-1.445q-1.47-.543-2.82-0.994-0.93-.3-1.68-0.582a6.987,6.987,0,0,1-1.3-.619,2.573,2.573,0,0,1-.83-0.788,2.156,2.156,0,0,1-.28-1.126,2.182,2.182,0,0,1,.36-1.294,2.949,2.949,0,0,1,.88-0.826,3.4,3.4,0,0,1,1.18-.431,7.7,7.7,0,0,1,1.3-.113,6.123,6.123,0,0,1,2.57.619,5.79,5.79,0,0,1,2.16,1.67Zm22.62,2.889v-5.478h-21.42v5.478h7.5v21.09h6.42v-21.09h7.5Z" transform="translate(-1226.28 -425.531)"/>
</svg>
