<svg xmlns="http://www.w3.org/2000/svg" width="409" height="82" viewBox="0 0 409 82">
  <metadata><?xpacket begin="﻿" id="W5M0MpCehiHzreSzNTczkc9d"?>
<x:xmpmeta xmlns:x="adobe:ns:meta/" x:xmptk="Adobe XMP Core 5.6-c140 79.160451, 2017/05/06-01:08:21        ">
   <rdf:RDF xmlns:rdf="http://www.w3.org/1999/02/22-rdf-syntax-ns#">
      <rdf:Description rdf:about=""/>
   </rdf:RDF>
</x:xmpmeta>
                                                                                                    
                                                                                                    
                                                                                                    
                                                                                                    
                                                                                                    
                                                                                                    
                                                                                                    
                                                                                                    
                                                                                                    
                                                                                                    
                                                                                                    
                                                                                                    
                                                                                                    
                                                                                                    
                                                                                                    
                                                                                                    
                                                                                                    
                                                                                                    
                                                                                                    
                                                                                                    
                           
<?xpacket end="w"?></metadata>
<defs>
    <style>
      .cls-1 {
        fill: #fff;
        fill-rule: evenodd;
      }
    </style>
  </defs>
  <path id="download_the_app" data-name="download the app" class="cls-1" d="M0,0H400V73H0V0ZM52.656,29.782a6.415,6.415,0,0,1,1.388,4.31v3.791a6.442,6.442,0,0,1-1.388,4.328,4.735,4.735,0,0,1-3.8,1.627h-3V28.155h3A4.736,4.736,0,0,1,52.656,29.782ZM55.933,44.7A9.166,9.166,0,0,0,58.6,37.884V34.127A9.2,9.2,0,0,0,55.933,27.3a9.328,9.328,0,0,0-6.856-2.64H41.316V47.336h7.761A9.343,9.343,0,0,0,55.933,44.7ZM75.2,42.5a4.345,4.345,0,0,1-3.6,1.671A4.3,4.3,0,0,1,68,42.5a7,7,0,0,1-1.3-4.423v-4.12a6.958,6.958,0,0,1,1.285-4.388,4.276,4.276,0,0,1,3.579-1.653,4.379,4.379,0,0,1,3.622,1.671,6.817,6.817,0,0,1,1.328,4.371v4.12A6.933,6.933,0,0,1,75.2,42.5Zm3.2-15.425a9.1,9.1,0,0,0-6.821-2.709,8.989,8.989,0,0,0-6.787,2.709,9.571,9.571,0,0,0-2.6,6.916v4.086a10.337,10.337,0,0,0,1.173,4.96,8.541,8.541,0,0,0,3.311,3.428,9.6,9.6,0,0,0,4.9,1.238A9.121,9.121,0,0,0,78.4,45a9.512,9.512,0,0,0,2.63-6.925V33.989A9.5,9.5,0,0,0,78.4,27.073Zm17.16-2.415L91.33,40.2l-0.1-.017L87.984,24.658H83.552l5.295,22.678h4.191l4.157-14.974H97.28l4.14,14.974h4.208l5.277-22.678H106.49L103.265,40.2h-0.1L98.9,24.658H95.556Zm32.371,0V40.117l-0.1.017L118.7,24.658h-4.536V47.336H118.7V31.842l0.1-.017,9.123,15.511h4.519V24.658h-4.519Zm9.451,0V47.336h14.591v-3.5H141.914V24.658h-4.536ZM167.223,42.5a4.345,4.345,0,0,1-3.605,1.671,4.3,4.3,0,0,1-3.587-1.671,7,7,0,0,1-1.3-4.423v-4.12a6.956,6.956,0,0,1,1.285-4.388,4.275,4.275,0,0,1,3.578-1.653,4.378,4.378,0,0,1,3.622,1.671,6.812,6.812,0,0,1,1.328,4.371v4.12A6.937,6.937,0,0,1,167.223,42.5Zm3.2-15.425a9.1,9.1,0,0,0-6.821-2.709,8.99,8.99,0,0,0-6.787,2.709,9.572,9.572,0,0,0-2.6,6.916v4.086a10.337,10.337,0,0,0,1.173,4.96,8.54,8.54,0,0,0,3.311,3.428,9.6,9.6,0,0,0,4.9,1.238,9.122,9.122,0,0,0,6.839-2.7,9.513,9.513,0,0,0,2.63-6.925V33.989A9.5,9.5,0,0,0,170.422,27.073ZM195.55,47.336l-7.744-22.678h-4.639l-7.778,22.678h4.57l1.535-4.9h7.933l1.535,4.9h4.588ZM185.53,29.955l2.794,8.915h-5.709l2.811-8.915h0.1Zm24.17-.173a6.413,6.413,0,0,1,1.389,4.31v3.791a6.439,6.439,0,0,1-1.389,4.328,4.733,4.733,0,0,1-3.8,1.627h-3V28.155h3A4.734,4.734,0,0,1,209.7,29.782ZM212.977,44.7a9.164,9.164,0,0,0,2.665-6.821V34.127a9.193,9.193,0,0,0-2.665-6.829,9.325,9.325,0,0,0-6.855-2.64h-7.761V47.336h7.761A9.34,9.34,0,0,0,212.977,44.7ZM227.9,24.658v3.5h6.364V47.336H238.8V28.155h6.4v-3.5H227.9Zm34.286,0V34.4h-9.227V24.658h-4.536V47.336h4.536V37.9h9.227v9.435h4.519V24.658h-4.519Zm13.987,9.192v-5.7h10.917v-3.5H271.64V47.336h15.487v-3.5H276.176V37.365h9.365V33.85h-9.365Zm42.339,13.486-7.744-22.678h-4.639l-7.778,22.678h4.57l1.535-4.9h7.934l1.535,4.9h4.587ZM308.5,29.955l2.794,8.915H305.58l2.811-8.915h0.1Zm21.834-1.8a3.811,3.811,0,0,1,2.863,1.03,3.739,3.739,0,0,1,1,2.718,3.649,3.649,0,0,1-1,2.692,3.867,3.867,0,0,1-2.863,1h-4.467V28.155h4.467Zm6.139,8.993a6.646,6.646,0,0,0,2.243-5.263,6.637,6.637,0,0,0-2.251-5.263,9,9,0,0,0-6.131-1.965h-9V47.336h4.536V39.113h4.467A8.992,8.992,0,0,0,336.468,37.148Zm15.28-8.993a3.809,3.809,0,0,1,2.863,1.03,3.735,3.735,0,0,1,1,2.718,3.645,3.645,0,0,1-1,2.692,3.865,3.865,0,0,1-2.863,1h-4.466V28.155h4.466Zm6.14,8.993a6.646,6.646,0,0,0,2.242-5.263,6.636,6.636,0,0,0-2.25-5.263,9.006,9.006,0,0,0-6.132-1.965h-9V47.336h4.536V39.113h4.466A8.993,8.993,0,0,0,357.888,37.148Z"/>
  <path class="cls-1" d="M409,82H8V79H406V8h3V82h0Z"/>
</svg>
