<svg xmlns="http://www.w3.org/2000/svg" width="409" height="82" viewBox="0 0 409 82">
  <metadata><?xpacket begin="﻿" id="W5M0MpCehiHzreSzNTczkc9d"?>
<x:xmpmeta xmlns:x="adobe:ns:meta/" x:xmptk="Adobe XMP Core 5.6-c140 79.160451, 2017/05/06-01:08:21        ">
   <rdf:RDF xmlns:rdf="http://www.w3.org/1999/02/22-rdf-syntax-ns#">
      <rdf:Description rdf:about=""/>
   </rdf:RDF>
</x:xmpmeta>
                                                                                                    
                                                                                                    
                                                                                                    
                                                                                                    
                                                                                                    
                                                                                                    
                                                                                                    
                                                                                                    
                                                                                                    
                                                                                                    
                                                                                                    
                                                                                                    
                                                                                                    
                                                                                                    
                                                                                                    
                                                                                                    
                                                                                                    
                                                                                                    
                                                                                                    
                                                                                                    
                           
<?xpacket end="w"?></metadata>
<defs>
    <style>
      .cls-1 {
        fill: #fff;
        fill-rule: evenodd;
      }
    </style>
  </defs>
  <path class="cls-1" d="M8,82V79H406V8h3V82H8Z"/>
  <path id="Learn_more" data-name="Learn more" class="cls-1" d="M0,0H400V73H0V0ZM100.316,24.658V47.336h14.591v-3.5H104.852V24.658h-4.536Zm22.437,9.192v-5.7H133.67v-3.5H118.217V47.336h15.488v-3.5H122.753V37.365h9.365V33.85h-9.365Zm32.665,13.486-7.744-22.678h-4.639l-7.779,22.678h4.571l1.535-4.9h7.933l1.535,4.9h4.588ZM145.4,29.955l2.794,8.915h-5.709l2.811-8.915h0.1Zm17.367,8.327,4.311-.017a3.489,3.489,0,0,1,2.613.944,3.617,3.617,0,0,1,.923,2.64v1.61q0,3.081.983,3.878h4.674V47.007a2.777,2.777,0,0,1-.845-1.445,7.583,7.583,0,0,1-.276-2.069V41.814q0-4.276-3.76-5.4,3.6-1.593,3.6-5.038a6,6,0,0,0-2.174-4.934,9.346,9.346,0,0,0-6.053-1.766h-8.537V47.353h4.536V38.282Zm4-10.127a3.86,3.86,0,0,1,2.759.9,3.274,3.274,0,0,1,.949,2.493q0,3.22-3.794,3.22h-3.915V28.155h4Zm26.956-3.5V40.117l-0.1.017L184.5,24.658h-4.536V47.336H184.5V31.842l0.1-.017,9.124,15.511h4.519V24.658h-4.519Zm19.125,22.678h4.536V40.567l-0.431-9.954,0.086-.017,6.037,16.74h3.035l6.054-16.792,0.086,0.017-0.431,10.006v6.769h4.536V24.658h-5.933l-5.795,16.706h-0.1l-5.76-16.706h-5.916V47.336Zm40.78-4.839a4.346,4.346,0,0,1-3.605,1.671,4.3,4.3,0,0,1-3.587-1.671,6.992,6.992,0,0,1-1.3-4.423v-4.12a6.956,6.956,0,0,1,1.285-4.388A4.275,4.275,0,0,1,250,27.912a4.378,4.378,0,0,1,3.622,1.671,6.818,6.818,0,0,1,1.328,4.371v4.12A6.937,6.937,0,0,1,253.627,42.5Zm3.2-15.425a9.1,9.1,0,0,0-6.821-2.709,8.99,8.99,0,0,0-6.787,2.709,9.572,9.572,0,0,0-2.6,6.916v4.086a10.337,10.337,0,0,0,1.173,4.96,8.54,8.54,0,0,0,3.311,3.428A9.6,9.6,0,0,0,250,47.7a9.122,9.122,0,0,0,6.839-2.7,9.513,9.513,0,0,0,2.63-6.925V33.989A9.5,9.5,0,0,0,256.826,27.073Zm11.417,11.209,4.311-.017a3.489,3.489,0,0,1,2.613.944,3.617,3.617,0,0,1,.923,2.64v1.61q0,3.081.983,3.878h4.674V47.007a2.79,2.79,0,0,1-.845-1.445,7.583,7.583,0,0,1-.276-2.069V41.814q0-4.276-3.76-5.4,3.6-1.593,3.605-5.038a6,6,0,0,0-2.173-4.934,9.351,9.351,0,0,0-6.054-1.766h-8.537V47.353h4.536V38.282Zm4-10.127a3.86,3.86,0,0,1,2.759.9,3.27,3.27,0,0,1,.949,2.493q0,3.22-3.794,3.22h-3.915V28.155h4Zm17.729,5.7v-5.7H300.89v-3.5H285.437V47.336h15.488v-3.5H289.973V37.365h9.365V33.85h-9.365Z"/>
</svg>
