<svg xmlns="http://www.w3.org/2000/svg" width="409" height="82" viewBox="0 0 409 82">
  <metadata><?xpacket begin="﻿" id="W5M0MpCehiHzreSzNTczkc9d"?>
<x:xmpmeta xmlns:x="adobe:ns:meta/" x:xmptk="Adobe XMP Core 5.6-c140 79.160451, 2017/05/06-01:08:21        ">
   <rdf:RDF xmlns:rdf="http://www.w3.org/1999/02/22-rdf-syntax-ns#">
      <rdf:Description rdf:about=""/>
   </rdf:RDF>
</x:xmpmeta>
                                                                                                    
                                                                                                    
                                                                                                    
                                                                                                    
                                                                                                    
                                                                                                    
                                                                                                    
                                                                                                    
                                                                                                    
                                                                                                    
                                                                                                    
                                                                                                    
                                                                                                    
                                                                                                    
                                                                                                    
                                                                                                    
                                                                                                    
                                                                                                    
                                                                                                    
                                                                                                    
                           
<?xpacket end="w"?></metadata>
<defs>
    <style>
      .cls-1 {
        fill: #fff;
        fill-rule: evenodd;
      }
    </style>
  </defs>
  <path id="More_about_me" data-name="More about me" class="cls-1" d="M0,0H400V73H0V0ZM70.316,47.336h4.536V40.567l-0.431-9.954,0.086-.017,6.036,16.74h3.035l6.054-16.792,0.086,0.017L89.287,40.567v6.769h4.536V24.658H87.89L82.1,41.364h-0.1L76.231,24.658H70.316V47.336ZM111.1,42.5a4.343,4.343,0,0,1-3.6,1.671A4.3,4.3,0,0,1,103.9,42.5a7,7,0,0,1-1.3-4.423v-4.12a6.956,6.956,0,0,1,1.285-4.388,4.276,4.276,0,0,1,3.579-1.653,4.38,4.38,0,0,1,3.622,1.671,6.818,6.818,0,0,1,1.328,4.371v4.12A6.931,6.931,0,0,1,111.1,42.5Zm3.2-15.425a9.106,9.106,0,0,0-6.822-2.709,8.988,8.988,0,0,0-6.786,2.709,9.57,9.57,0,0,0-2.6,6.916v4.086a10.336,10.336,0,0,0,1.173,4.96,8.54,8.54,0,0,0,3.312,3.428,9.6,9.6,0,0,0,4.9,1.238A9.12,9.12,0,0,0,114.3,45a9.513,9.513,0,0,0,2.63-6.925V33.989A9.5,9.5,0,0,0,114.3,27.073Zm11.416,11.209,4.312-.017a3.489,3.489,0,0,1,2.613.944,3.617,3.617,0,0,1,.923,2.64v1.61q0,3.081.983,3.878h4.673V47.007a2.79,2.79,0,0,1-.845-1.445,7.583,7.583,0,0,1-.276-2.069V41.814q0-4.276-3.759-5.4,3.6-1.593,3.6-5.038a6,6,0,0,0-2.173-4.934,9.351,9.351,0,0,0-6.054-1.766h-8.537V47.353h4.536V38.282Zm4-10.127a3.862,3.862,0,0,1,2.76.9,3.274,3.274,0,0,1,.949,2.493q0,3.22-3.795,3.22h-3.915V28.155h4Zm17.73,5.7v-5.7h10.917v-3.5H142.906V47.336h15.487v-3.5H147.442V37.365h9.365V33.85h-9.365Zm42.339,13.486-7.744-22.678H177.4L169.62,47.336h4.57l1.535-4.9h7.934l1.534,4.9h4.588Zm-10.02-17.381,2.794,8.915h-5.709l2.811-8.915h0.1Zm25.248,10.768q0,3.116-3.708,3.116h-4.173V37.3h4.518q3.363,0,3.363,3.428h0Zm-4.777-12.568a4.841,4.841,0,0,1,2.966.744,2.663,2.663,0,0,1,.966,2.25,2.688,2.688,0,0,1-.966,2.259,4.5,4.5,0,0,1-2.811.753h-3.259V28.155h3.1Zm7.166,17.5a5.926,5.926,0,0,0,2.113-4.934,5.46,5.46,0,0,0-1.035-3.35,4.9,4.9,0,0,0-3.018-1.826,5.085,5.085,0,0,0,2.406-1.852,4.9,4.9,0,0,0,.836-2.822,5.339,5.339,0,0,0-2.2-4.648,10.7,10.7,0,0,0-6.269-1.567h-7.64V47.336H201.3A9.613,9.613,0,0,0,207.4,45.657ZM226.041,42.5a4.343,4.343,0,0,1-3.6,1.671,4.3,4.3,0,0,1-3.588-1.671,7,7,0,0,1-1.3-4.423v-4.12a6.956,6.956,0,0,1,1.285-4.388,4.276,4.276,0,0,1,3.579-1.653,4.38,4.38,0,0,1,3.622,1.671,6.818,6.818,0,0,1,1.328,4.371v4.12A6.931,6.931,0,0,1,226.041,42.5Zm3.2-15.425a9.106,9.106,0,0,0-6.822-2.709,8.988,8.988,0,0,0-6.786,2.709,9.569,9.569,0,0,0-2.605,6.916v4.086a10.337,10.337,0,0,0,1.173,4.96,8.543,8.543,0,0,0,3.312,3.428,9.6,9.6,0,0,0,4.9,1.238,9.12,9.12,0,0,0,6.838-2.7,9.513,9.513,0,0,0,2.63-6.925V33.989A9.5,9.5,0,0,0,229.241,27.073ZM249.47,39.736a4.4,4.4,0,0,1-1.181,3.35,4.7,4.7,0,0,1-3.355,1.117,4.61,4.61,0,0,1-3.337-1.125,4.442,4.442,0,0,1-1.164-3.341V24.693H235.88V39.736a7.3,7.3,0,0,0,2.449,5.877A11.482,11.482,0,0,0,251.54,45.6a7.281,7.281,0,0,0,2.466-5.869V24.693H249.47V39.736Zm7.519-15.078v3.5h6.364V47.336h4.536V28.155h6.4v-3.5h-17.3Zm30.2,22.678h4.536V40.567l-0.431-9.954,0.086-.017,6.036,16.74h3.036L306.5,30.544l0.086,0.017-0.431,10.006v6.769H310.7V24.658h-5.933l-5.8,16.706h-0.1L293.1,24.658h-5.916V47.336ZM320.162,33.85v-5.7H331.08v-3.5H315.626V47.336h15.488v-3.5H320.162V37.365h9.365V33.85h-9.365Z"/>
  <path class="cls-1" d="M409,82H8V79H406V8h3V82h0Z"/>
</svg>
