<svg xmlns="http://www.w3.org/2000/svg" width="409" height="82" viewBox="0 0 409 82">
  <metadata><?xpacket begin="﻿" id="W5M0MpCehiHzreSzNTczkc9d"?>
<x:xmpmeta xmlns:x="adobe:ns:meta/" x:xmptk="Adobe XMP Core 5.6-c140 79.160451, 2017/05/06-01:08:21        ">
   <rdf:RDF xmlns:rdf="http://www.w3.org/1999/02/22-rdf-syntax-ns#">
      <rdf:Description rdf:about=""/>
   </rdf:RDF>
</x:xmpmeta>
                                                                                                    
                                                                                                    
                                                                                                    
                                                                                                    
                                                                                                    
                                                                                                    
                                                                                                    
                                                                                                    
                                                                                                    
                                                                                                    
                                                                                                    
                                                                                                    
                                                                                                    
                                                                                                    
                                                                                                    
                                                                                                    
                                                                                                    
                                                                                                    
                                                                                                    
                                                                                                    
                           
<?xpacket end="w"?></metadata>
<defs>
    <style>
      .cls-1 {
        fill: #fff;
        fill-rule: evenodd;
      }
    </style>
  </defs>
  <path id="view_the_site" data-name="view the site" class="cls-1" d="M0,0H400V73H0V0ZM87.315,24.658L94.99,47.336h4.657l7.674-22.678h-4.777L97.629,41.329,97.37,42.541h-0.1l-0.276-1.229L92.11,24.658H87.315Zm23.231,0V47.336h4.519V24.658h-4.519Zm14.28,9.192v-5.7h10.917v-3.5H120.29V47.336h15.487v-3.5H124.826V37.365h9.365V33.85h-9.365Zm24.7-9.192L145.3,40.2l-0.1-.017-3.242-15.529h-4.432l5.294,22.678H147l4.157-14.974h0.086l4.139,14.974H159.6l5.277-22.678h-4.415L157.232,40.2h-0.1l-4.26-15.546h-3.346Zm26.611,0v3.5H182.5V47.336h4.536V28.155h6.4v-3.5h-17.3Zm34.286,0V34.4h-9.227V24.658h-4.536V47.336h4.536V37.9h9.227v9.435h4.519V24.658h-4.519Zm13.986,9.192v-5.7h10.918v-3.5H219.869V47.336h15.488v-3.5H224.405V37.365h9.365V33.85h-9.365Zm27.818,6.492h-4.4l-0.034.1a6.15,6.15,0,0,0,1.224,3.9,7.659,7.659,0,0,0,3.329,2.519,12.052,12.052,0,0,0,4.57.84,9.954,9.954,0,0,0,6.08-1.688,5.341,5.341,0,0,0,2.268-4.51,5.885,5.885,0,0,0-1.871-4.544,13.965,13.965,0,0,0-5.718-2.8,14.379,14.379,0,0,1-3.717-1.584,2.293,2.293,0,0,1-1.026-1.956,2.443,2.443,0,0,1,1.009-2.008,4.514,4.514,0,0,1,2.837-.788,4.167,4.167,0,0,1,2.889.952,3.273,3.273,0,0,1,1.061,2.562h4.4l0.017-.087a5.923,5.923,0,0,0-2.259-4.925,9.1,9.1,0,0,0-6.045-1.965,9.86,9.86,0,0,0-6.063,1.766A5.65,5.65,0,0,0,250.369,35a17.625,17.625,0,0,0,6.218,2.848,9.316,9.316,0,0,1,3.251,1.5,2.641,2.641,0,0,1,.9,2.095,2.447,2.447,0,0,1-.992,2.06,4.584,4.584,0,0,1-2.819.753H256.9q-4.674,0-4.674-3.912h0Zm17.436-15.684V47.336h4.519V24.658h-4.519Zm8.071,0v3.5h6.364V47.336h4.536V28.155h6.4v-3.5h-17.3Zm25.059,9.192v-5.7h10.917v-3.5H298.253V47.336h15.488v-3.5H302.789V37.365h9.365V33.85h-9.365Z"/>
  <path class="cls-1" d="M409,82H8V79H406V8h3V82h0Z"/>
</svg>
